<?xml version="1.0" encoding="UTF-8"?>
<svg id="Layer_1" xmlns="http://www.w3.org/2000/svg" version="1.1" viewBox="0 0 722 463.9">
  <!-- Generator: Adobe Illustrator 30.0.0, SVG Export Plug-In . SVG Version: 2.1.1 Build 123)  -->
  <defs>
    <style>
      .st0 {
        fill: #fff;
      }
    </style>
  </defs>
  <g>
    <path class="st0" d="M0,438.6v-194.5h36.6c10.2,0,18.1,2.1,23.8,6.4,5.7,4.2,9.7,10.3,11.9,18.2,2.3,7.9,3.4,17.3,3.4,28.3v85.4c.1,13.1-1.2,23.8-3.8,32.1-2.6,8.3-6.8,14.4-12.7,18.3-5.9,3.9-13.7,5.9-23.4,5.9H0ZM22.8,420.1h11.7c4.1,0,7.5-.9,10.3-2.7s4.8-5.2,6.1-10.1c1.4-4.9,2-12.1,2-21.4v-89.5c0-12.2-1.4-21-4.3-26.2-2.9-5.3-7.6-7.9-14.1-7.9h-11.7v158h0Z"/>
    <path class="st0" d="M106,257.5v-20.8h22.8v20.8h-22.8ZM106,438.6v-165.8h22.8v165.8h-22.8Z"/>
    <path class="st0" d="M194.5,463.9c-7.6.2-14.4-.6-20.5-2.5-6.1-1.9-11.3-4.6-15.6-8.1l8.2-15.5c3.2,2.2,7.1,4.2,11.5,5.9,4.4,1.7,9.5,2.5,15.4,2.3,5.2-.1,9.2-2.1,12-5.8,2.8-3.7,4.3-8.7,4.3-15v-15.8c-2.1,5.5-5.1,9.1-8.8,10.9s-8,2.8-12.8,2.8c-7.7,0-13.7-2.2-18-6.7-4.2-4.5-7.2-10.6-8.8-18.5s-2.5-16.6-2.5-26.5v-47.5c0-10.1,1-19.2,2.9-27.2s5.2-14.4,9.8-19.1c4.6-4.7,10.8-6.9,18.6-6.8,4.7,0,8.8,1.2,12.2,3.5,3.4,2.3,5.9,5.8,7.5,10.6v-12.2h22.7v150.3c0,4.7-.6,9.4-1.7,14.1-1.1,4.7-3.1,9-5.9,13-2.8,3.9-6.6,7.1-11.5,9.6s-11.1,3.8-18.7,4ZM196.8,405.1c2.9,0,5.4-.9,7.3-2.6,1.9-1.8,3.3-5.1,4.3-9.9.9-4.8,1.4-11.8,1.4-20.8v-51.2c0-10.1-.9-17.8-2.7-23-1.8-5.2-5.6-7.9-11.3-7.9s-7.3,1.3-9.3,3.9c-2,2.6-3.3,6.2-3.9,10.8s-.9,9.9-.9,15.9v51.6c0,11,1,19.2,3,24.8,2,5.6,6.1,8.3,12.3,8.3h0Z"/>
    <path class="st0" d="M264.4,257.5v-20.8h22.8v20.8h-22.8ZM264.4,438.6v-165.8h22.8v165.8h-22.8Z"/>
    <path class="st0" d="M319.6,438.6v-194.5h22.9v175.6h35.9v18.9h-58.8Z"/>
    <path class="st0" d="M396.9,257.5v-20.8h22.8v20.8h-22.8ZM396.9,438.6v-165.8h22.8v165.8h-22.8Z"/>
    <path class="st0" d="M452,438.6v-165.8h22.7v17.6c1.5-5.2,4.6-9.7,9.5-13.7,4.8-4,10.6-6,17.3-6s14.8,3,19.5,8.8c4.6,5.9,7,14.9,7,26.9v132.2h-22.7v-132.1c0-5.9-1.3-10.2-4-12.8s-6-4-10.2-4-5.8.7-8.3,2c-2.5,1.3-4.5,3.4-5.9,6.2-1.4,2.8-2.2,6.4-2.2,10.8v129.9h-22.7,0Z"/>
    <path class="st0" d="M559.6,438.6v-196.6h22.7v109.7l32.6-78.8h22.9l-34.9,81.9,36.8,83.9h-23.3l-34-80.7v80.7h-22.7Z"/>
    <path class="st0" d="M645.5,438.6l27.8-85.4-26-80.4h20l17.5,53,15.5-53h20.6l-26.8,81.1,27.8,84.7h-21.1l-18.1-56.4-16.7,56.4h-20.6,0Z"/>
  </g>
  <path class="st0" d="M367.1,27.9C348.4,9.3,324.5,0,295.4,0h-110.6v73.8h47.5v-25.9l94.8,54.7h0l-94.8,54.7h0v-23.3h-47.5v71.3h110.6c28.7,0,52.5-9.9,71.3-29.8,18.9-19.8,28.3-44.8,28.3-74.8s-9.3-54.3-27.9-72.9h0Z"/>
  <path class="st0" d="M414.4,152.4V0h-63.5v6.1c7.8,4.4,15,9.9,21.6,16.5,20,20,30.2,46.3,30.2,78.3s-10.2,58.8-30.4,80c-6.5,6.9-13.7,12.7-21.3,17.3v7.2h181.4l41.3-53h-159.2,0Z"/>
  <g>
    <path class="st0" d="M247.2,77.8c-2.6,0-4.9,1.6-5.8,3.8h-78.4v5h78.4c1,2.2,3.2,3.8,5.8,3.8s6.3-2.8,6.3-6.3-2.8-6.3-6.3-6.3h0Z"/>
    <path class="st0" d="M266.5,96.3c-2.9,0-5.3,1.9-6.1,4.5h-120.9v5h121.5c1.1,1.9,3.1,3.2,5.5,3.2,3.5,0,6.3-2.8,6.3-6.3s-2.8-6.3-6.3-6.3h0Z"/>
    <path class="st0" d="M245.1,114.9c-2.6,0-4.9,1.6-5.8,3.8h-76.4v5h76.4c1,2.2,3.2,3.8,5.8,3.8s6.3-2.8,6.3-6.3-2.8-6.3-6.3-6.3h0Z"/>
  </g>
</svg>